<?xml version="1.0" encoding="UTF-8" standalone="no"?><!DOCTYPE svg PUBLIC "-//W3C//DTD SVG 1.1//EN" "http://www.w3.org/Graphics/SVG/1.1/DTD/svg11.dtd"><!-- Generated by graphviz version 2.40.1 (20161225.0304)
 --><!-- Title: ExpansionTransformer Pages: 1 --><svg xmlns="http://www.w3.org/2000/svg" xmlns:xlink="http://www.w3.org/1999/xlink" width="943pt" height="560pt" viewBox="0.00 0.00 942.95 560.00">
<g id="graph0" class="graph" transform="scale(1 1) rotate(0) translate(4 556)">
<title>ExpansionTransformer</title>
<polygon fill="#ffffff" stroke="transparent" points="-4,4 -4,-556 938.9461,-556 938.9461,4 -4,4"/>
<!-- Acronym -->
<g id="node1" class="node">
<title>Acronym</title>
<polygon fill="none" stroke="#000000" points="718.3233,-332.1 718.3233,-440.1 934.9461,-440.1 934.9461,-332.1 718.3233,-332.1"/>
<text text-anchor="middle" x="826.6347" y="-423.5" font-family="Times,serif" font-size="14.00" fill="#000000">Acronym</text>
<polyline fill="none" stroke="#000000" points="718.3233,-415.3 934.9461,-415.3 "/>
<text text-anchor="start" x="726.3233" y="-398.7" font-family="Times,serif" font-size="14.00" fill="#000000">- Acronym(String, String, boolean) </text>
<polyline fill="none" stroke="#000000" points="718.3233,-390.5 934.9461,-390.5 "/>
<text text-anchor="start" x="726.3233" y="-373.9" font-family="Times,serif" font-size="14.00" fill="#000000">+ replacements : List&lt;Character&gt;</text>
<text text-anchor="start" x="726.3233" y="-357.1" font-family="Times,serif" font-size="14.00" fill="#000000"> + hasDots : boolean</text>
<text text-anchor="start" x="726.3233" y="-340.3" font-family="Times,serif" font-size="14.00" fill="#000000"> + regex : String</text>
</g>
<!-- AcronymTransformer -->
<g id="node2" class="node">
<title>AcronymTransformer</title>
<polygon fill="none" stroke="#000000" points="741.396,-183.1 741.396,-257.5 911.8734,-257.5 911.8734,-183.1 741.396,-183.1"/>
<text text-anchor="middle" x="826.6347" y="-240.9" font-family="Times,serif" font-size="14.00" fill="#000000">AcronymTransformer</text>
<polyline fill="none" stroke="#000000" points="741.396,-232.7 911.8734,-232.7 "/>
<text text-anchor="start" x="749.396" y="-216.1" font-family="Times,serif" font-size="14.00" fill="#000000">+ AcronymTransformer() </text>
<polyline fill="none" stroke="#000000" points="741.396,-207.9 911.8734,-207.9 "/>
<text text-anchor="start" x="749.396" y="-191.3" font-family="Times,serif" font-size="14.00" fill="#000000">+ transform(String) : String</text>
</g>
<!-- Acronym&#45;&gt;AcronymTransformer -->
<g id="edge1" class="edge">
<title>Acronym-&gt;AcronymTransformer</title>
<path fill="none" stroke="#820000" d="M826.6347,-323.8109C826.6347,-323.8109 826.6347,-257.667 826.6347,-257.667"/>
<ellipse fill="none" stroke="#820000" cx="826.6347" cy="-327.8109" rx="4" ry="4"/>
</g>
<!-- AcronymTransformer&#45;&gt;Acronym -->
<g id="edge2" class="edge">
<title>AcronymTransformer-&gt;Acronym</title>
<path fill="none" stroke="#595959" stroke-dasharray="5,2" d="M869.2541,-257.5088C869.2541,-257.5088 869.2541,-322.0278 869.2541,-322.0278"/>
<polygon fill="#595959" stroke="#595959" points="869.2541,-332.0278 864.7541,-322.0277 869.2541,-327.0278 869.2541,-322.0278 869.2541,-322.0278 869.2541,-322.0278 869.2541,-327.0278 873.7541,-322.0278 869.2541,-332.0278 869.2541,-332.0278"/>
</g>
<!-- Replacement -->
<g id="node7" class="node">
<title>Replacement</title>
<polygon fill="none" stroke="#000000" points="740.2537,-.5 740.2537,-108.5 931.0157,-108.5 931.0157,-.5 740.2537,-.5"/>
<text text-anchor="middle" x="835.6347" y="-91.9" font-family="Times,serif" font-size="14.00" fill="#000000">Replacement</text>
<polyline fill="none" stroke="#000000" points="740.2537,-83.7 931.0157,-83.7 "/>
<text text-anchor="start" x="748.2537" y="-67.1" font-family="Times,serif" font-size="14.00" fill="#000000">~ Replacement(String, int, int) </text>
<polyline fill="none" stroke="#000000" points="740.2537,-58.9 931.0157,-58.9 "/>
<text text-anchor="start" x="748.2537" y="-42.3" font-family="Times,serif" font-size="14.00" fill="#000000">+ replacement : String</text>
<text text-anchor="start" x="748.2537" y="-25.5" font-family="Times,serif" font-size="14.00" fill="#000000"> + end : int</text>
<text text-anchor="start" x="748.2537" y="-8.7" font-family="Times,serif" font-size="14.00" fill="#000000"> + start : int</text>
</g>
<!-- AcronymTransformer&#45;&gt;Replacement -->
<g id="edge3" class="edge">
<title>AcronymTransformer-&gt;Replacement</title>
<path fill="none" stroke="#595959" stroke-dasharray="5,2" d="M855.0476,-183.0912C855.0476,-183.0912 855.0476,-118.5722 855.0476,-118.5722"/>
<polygon fill="#595959" stroke="#595959" points="855.0476,-108.5722 859.5477,-118.5722 855.0476,-113.5722 855.0477,-118.5722 855.0477,-118.5722 855.0477,-118.5722 855.0476,-113.5722 850.5477,-118.5723 855.0476,-108.5722 855.0476,-108.5722"/>
</g>
<!-- TextTransformer -->
<g id="node8" class="node">
<title>TextTransformer</title>
<polygon fill="none" stroke="#000000" points="234.396,-21.3 234.396,-87.7 404.8734,-87.7 404.8734,-21.3 234.396,-21.3"/>
<text text-anchor="middle" x="319.6347" y="-71.1" font-family="Times,serif" font-size="14.00" fill="#000000">&lt;&lt;interface&gt;&gt;</text>
<text text-anchor="middle" x="319.6347" y="-54.3" font-family="Times,serif" font-size="14.00" fill="#000000">TextTransformer</text>
<polyline fill="none" stroke="#000000" points="234.396,-46.1 404.8734,-46.1 "/>
<text text-anchor="start" x="242.396" y="-29.5" font-family="Times,serif" font-size="14.00" fill="#000000">+ transform(String) : String</text>
</g>
<!-- AcronymTransformer&#45;&gt;TextTransformer -->
<g id="edge4" class="edge">
<title>AcronymTransformer-&gt;TextTransformer</title>
<path fill="none" stroke="#008200" stroke-dasharray="5,2" d="M798.2218,-183.0418C798.2218,-154.865 798.2218,-121 798.2218,-121 798.2218,-121 370.0504,-121 370.0504,-121 370.0504,-121 370.0504,-97.75 370.0504,-97.75"/>
<polygon fill="#008200" stroke="#008200" points="373.5504,-97.75 370.0504,-87.75 366.5504,-97.75 373.5504,-97.75"/>
</g>
<!-- Expansion -->
<g id="node3" class="node">
<title>Expansion</title>
<polygon fill="none" stroke="#000000" points="534.9211,-8.9 534.9211,-100.1 722.3483,-100.1 722.3483,-8.9 534.9211,-8.9"/>
<text text-anchor="middle" x="628.6347" y="-83.5" font-family="Times,serif" font-size="14.00" fill="#000000">Expansion</text>
<polyline fill="none" stroke="#000000" points="534.9211,-75.3 722.3483,-75.3 "/>
<text text-anchor="start" x="542.9211" y="-58.7" font-family="Times,serif" font-size="14.00" fill="#000000">- Expansion(String, String) </text>
<polyline fill="none" stroke="#000000" points="534.9211,-50.5 722.3483,-50.5 "/>
<text text-anchor="start" x="542.9211" y="-33.9" font-family="Times,serif" font-size="14.00" fill="#000000">+ regex : String</text>
<text text-anchor="start" x="542.9211" y="-17.1" font-family="Times,serif" font-size="14.00" fill="#000000"> + replacements : List&lt;String&gt;</text>
</g>
<!-- ExpansionTransformer -->
<g id="node4" class="node">
<title>ExpansionTransformer</title>
<polygon fill="none" stroke="#000000" points="553.396,-183.1 553.396,-257.5 723.8734,-257.5 723.8734,-183.1 553.396,-183.1"/>
<text text-anchor="middle" x="638.6347" y="-240.9" font-family="Times,serif" font-size="14.00" fill="#000000">ExpansionTransformer</text>
<polyline fill="none" stroke="#000000" points="553.396,-232.7 723.8734,-232.7 "/>
<text text-anchor="start" x="561.396" y="-216.1" font-family="Times,serif" font-size="14.00" fill="#000000">+ ExpansionTransformer() </text>
<polyline fill="none" stroke="#000000" points="553.396,-207.9 723.8734,-207.9 "/>
<text text-anchor="start" x="561.396" y="-191.3" font-family="Times,serif" font-size="14.00" fill="#000000">+ transform(String) : String</text>
</g>
<!-- Expansion&#45;&gt;ExpansionTransformer -->
<g id="edge5" class="edge">
<title>Expansion-&gt;ExpansionTransformer</title>
<path fill="none" stroke="#820000" d="M620.9769,-108.2445C620.9769,-108.2445 620.9769,-183.0783 620.9769,-183.0783"/>
<ellipse fill="none" stroke="#820000" cx="620.977" cy="-104.2445" rx="4" ry="4"/>
</g>
<!-- ExpansionTransformer&#45;&gt;Expansion -->
<g id="edge6" class="edge">
<title>ExpansionTransformer-&gt;Expansion</title>
<path fill="none" stroke="#595959" stroke-dasharray="5,2" d="M654.7674,-183.0912C654.7674,-183.0912 654.7674,-110.1595 654.7674,-110.1595"/>
<polygon fill="#595959" stroke="#595959" points="654.7674,-100.1595 659.2675,-110.1595 654.7674,-105.1595 654.7675,-110.1595 654.7675,-110.1595 654.7675,-110.1595 654.7674,-105.1595 650.2675,-110.1596 654.7674,-100.1595 654.7674,-100.1595"/>
</g>
<!-- ExpansionTransformer&#45;&gt;Replacement -->
<g id="edge7" class="edge">
<title>ExpansionTransformer-&gt;Replacement</title>
<path fill="none" stroke="#595959" stroke-dasharray="5,2" d="M688.5578,-182.8618C688.5578,-148.8636 688.5578,-104 688.5578,-104 688.5578,-104 729.9982,-104 729.9982,-104"/>
<polygon fill="#595959" stroke="#595959" points="739.9982,-104 729.9982,-108.5001 734.9982,-104 729.9982,-104.0001 729.9982,-104.0001 729.9982,-104.0001 734.9982,-104 729.9981,-99.5001 739.9982,-104 739.9982,-104"/>
</g>
<!-- ExpansionTransformer&#45;&gt;TextTransformer -->
<g id="edge8" class="edge">
<title>ExpansionTransformer-&gt;TextTransformer</title>
<path fill="none" stroke="#008200" stroke-dasharray="5,2" d="M587.1865,-183.0237C587.1865,-159.2958 587.1865,-133 587.1865,-133 587.1865,-133 335.2273,-133 335.2273,-133 335.2273,-133 335.2273,-97.7911 335.2273,-97.7911"/>
<polygon fill="#008200" stroke="#008200" points="338.7274,-97.791 335.2273,-87.7911 331.7274,-97.7911 338.7274,-97.791"/>
</g>
<!-- NumberTransformer -->
<g id="node5" class="node">
<title>NumberTransformer</title>
<polygon fill="none" stroke="#000000" points="265.5812,-145.5 265.5812,-295.1 535.6882,-295.1 535.6882,-145.5 265.5812,-145.5"/>
<text text-anchor="middle" x="400.6347" y="-278.5" font-family="Times,serif" font-size="14.00" fill="#000000">NumberTransformer</text>
<polyline fill="none" stroke="#000000" points="265.5812,-270.3 535.6882,-270.3 "/>
<text text-anchor="start" x="273.5812" y="-253.7" font-family="Times,serif" font-size="14.00" fill="#000000">+ NumberTransformer() </text>
<polyline fill="none" stroke="#000000" points="265.5812,-245.5 535.6882,-245.5 "/>
<text text-anchor="start" x="273.5812" y="-228.9" font-family="Times,serif" font-size="14.00" fill="#000000">- numberToText : HashMap&lt;Integer, String&gt;</text>
<polyline fill="none" stroke="#000000" points="265.5812,-220.7 535.6882,-220.7 "/>
<text text-anchor="start" x="273.5812" y="-204.1" font-family="Times,serif" font-size="14.00" fill="#000000">- numberToText(int) : String</text>
<text text-anchor="start" x="273.5812" y="-187.3" font-family="Times,serif" font-size="14.00" fill="#000000"> + transform(String) : String</text>
<text text-anchor="start" x="273.5812" y="-170.5" font-family="Times,serif" font-size="14.00" fill="#000000"> - wholeNumberToString(int, int) : String</text>
<text text-anchor="start" x="273.5812" y="-153.7" font-family="Times,serif" font-size="14.00" fill="#000000"> - floatingPointToString(int) : String</text>
</g>
<!-- NumberTransformer&#45;&gt;TextTransformer -->
<g id="edge9" class="edge">
<title>NumberTransformer-&gt;TextTransformer</title>
<path fill="none" stroke="#008200" stroke-dasharray="5,2" d="M300.4043,-145.1618C300.4043,-145.1618 300.4043,-97.9274 300.4043,-97.9274"/>
<polygon fill="#008200" stroke="#008200" points="303.9043,-97.9274 300.4043,-87.9274 296.9043,-97.9274 303.9043,-97.9274"/>
</g>
<!-- RemoveRepetition -->
<g id="node6" class="node">
<title>RemoveRepetition</title>
<polygon fill="none" stroke="#000000" points="39.396,-183.1 39.396,-257.5 209.8734,-257.5 209.8734,-183.1 39.396,-183.1"/>
<text text-anchor="middle" x="124.6347" y="-240.9" font-family="Times,serif" font-size="14.00" fill="#000000">RemoveRepetition</text>
<polyline fill="none" stroke="#000000" points="39.396,-232.7 209.8734,-232.7 "/>
<text text-anchor="start" x="47.396" y="-216.1" font-family="Times,serif" font-size="14.00" fill="#000000">+ RemoveRepetition() </text>
<polyline fill="none" stroke="#000000" points="39.396,-207.9 209.8734,-207.9 "/>
<text text-anchor="start" x="47.396" y="-191.3" font-family="Times,serif" font-size="14.00" fill="#000000">+ transform(String) : String</text>
</g>
<!-- RemoveRepetition&#45;&gt;TextTransformer -->
<g id="edge10" class="edge">
<title>RemoveRepetition-&gt;TextTransformer</title>
<path fill="none" stroke="#008200" stroke-dasharray="5,2" d="M210.0369,-220C229.6083,-220 244.7911,-220 244.7911,-220 244.7911,-220 244.7911,-97.9914 244.7911,-97.9914"/>
<polygon fill="#008200" stroke="#008200" points="248.2912,-97.9914 244.7911,-87.9914 241.2912,-97.9914 248.2912,-97.9914"/>
</g>
<!-- TextTransformerFactory -->
<g id="node9" class="node">
<title>TextTransformerFactory</title>
<polygon fill="none" stroke="#000000" points="137.9363,-340.5 137.9363,-431.7 499.3331,-431.7 499.3331,-340.5 137.9363,-340.5"/>
<text text-anchor="middle" x="318.6347" y="-415.1" font-family="Times,serif" font-size="14.00" fill="#000000">TextTransformerFactory</text>
<polyline fill="none" stroke="#000000" points="137.9363,-406.9 499.3331,-406.9 "/>
<text text-anchor="start" x="145.9363" y="-390.3" font-family="Times,serif" font-size="14.00" fill="#000000">+ TextTransformerFactory() </text>
<polyline fill="none" stroke="#000000" points="137.9363,-382.1 499.3331,-382.1 "/>
<text text-anchor="start" x="145.9363" y="-365.5" font-family="Times,serif" font-size="14.00" fill="#000000">+ createTransformers(List&lt;String&gt;) : List&lt;TextTransformer&gt;</text>
<text text-anchor="start" x="145.9363" y="-348.7" font-family="Times,serif" font-size="14.00" fill="#000000"> + createTransformer(String) : TextTransformer</text>
</g>
<!-- TextTransformerFactory&#45;&gt;AcronymTransformer -->
<g id="edge11" class="edge">
<title>TextTransformerFactory-&gt;AcronymTransformer</title>
<path fill="none" stroke="#595959" stroke-dasharray="5,2" d="M421.4158,-340.2197C421.4158,-325.5328 421.4158,-313 421.4158,-313 421.4158,-313 784.0154,-313 784.0154,-313 784.0154,-313 784.0154,-267.7374 784.0154,-267.7374"/>
<polygon fill="#595959" stroke="#595959" points="784.0154,-257.7374 788.5154,-267.7374 784.0154,-262.7374 784.0154,-267.7374 784.0154,-267.7374 784.0154,-267.7374 784.0154,-262.7374 779.5154,-267.7375 784.0154,-257.7374 784.0154,-257.7374"/>
</g>
<!-- TextTransformerFactory&#45;&gt;ExpansionTransformer -->
<g id="edge12" class="edge">
<title>TextTransformerFactory-&gt;ExpansionTransformer</title>
<path fill="none" stroke="#595959" stroke-dasharray="5,2" d="M499.4867,-386C570.7263,-386 635.8597,-386 635.8597,-386 635.8597,-386 635.8597,-267.8999 635.8597,-267.8999"/>
<polygon fill="#595959" stroke="#595959" points="635.8597,-257.8999 640.3597,-267.8998 635.8597,-262.8999 635.8597,-267.8999 635.8597,-267.8999 635.8597,-267.8999 635.8597,-262.8999 631.3597,-267.8999 635.8597,-257.8999 635.8597,-257.8999"/>
</g>
<!-- TextTransformerFactory&#45;&gt;NumberTransformer -->
<g id="edge13" class="edge">
<title>TextTransformerFactory-&gt;NumberTransformer</title>
<path fill="none" stroke="#595959" stroke-dasharray="5,2" d="M343.4985,-340.3555C343.4985,-340.3555 343.4985,-305.1831 343.4985,-305.1831"/>
<polygon fill="#595959" stroke="#595959" points="343.4985,-295.1831 347.9986,-305.1831 343.4985,-300.1831 343.4986,-305.1831 343.4986,-305.1831 343.4986,-305.1831 343.4985,-300.1831 338.9986,-305.1832 343.4985,-295.1831 343.4985,-295.1831"/>
</g>
<!-- TextTransformerFactory&#45;&gt;RemoveRepetition -->
<g id="edge14" class="edge">
<title>TextTransformerFactory-&gt;RemoveRepetition</title>
<path fill="none" stroke="#595959" stroke-dasharray="5,2" d="M173.9049,-340.3555C173.9049,-340.3555 173.9049,-267.5217 173.9049,-267.5217"/>
<polygon fill="#595959" stroke="#595959" points="173.9049,-257.5217 178.4049,-267.5216 173.9049,-262.5217 173.9049,-267.5217 173.9049,-267.5217 173.9049,-267.5217 173.9049,-262.5217 169.4049,-267.5217 173.9049,-257.5217 173.9049,-257.5217"/>
</g>
<!-- TextTransformerFactory&#45;&gt;TextTransformer -->
<g id="edge15" class="edge">
<title>TextTransformerFactory-&gt;TextTransformer</title>
<path fill="none" stroke="#595959" stroke-dasharray="5,2" d="M255.1861,-340.3406C255.1861,-340.3406 255.1861,-97.7672 255.1861,-97.7672"/>
<polygon fill="#595959" stroke="#595959" points="255.1861,-87.7672 259.6862,-97.7672 255.1862,-92.7672 255.1862,-97.7672 255.1862,-97.7672 255.1862,-97.7672 255.1862,-92.7672 250.6862,-97.7673 255.1861,-87.7672 255.1861,-87.7672"/>
</g>
<!-- TextTransformerService -->
<g id="node10" class="node">
<title>TextTransformerService</title>
<polygon fill="none" stroke="#000000" points="0,-477.1 0,-551.5 249.2694,-551.5 249.2694,-477.1 0,-477.1"/>
<text text-anchor="middle" x="124.6347" y="-534.9" font-family="Times,serif" font-size="14.00" fill="#000000">TextTransformerService</text>
<polyline fill="none" stroke="#000000" points="0,-526.7 249.2694,-526.7 "/>
<text text-anchor="start" x="8" y="-510.1" font-family="Times,serif" font-size="14.00" fill="#000000">+ TextTransformerService() </text>
<polyline fill="none" stroke="#000000" points="0,-501.9 249.2694,-501.9 "/>
<text text-anchor="start" x="8" y="-485.3" font-family="Times,serif" font-size="14.00" fill="#000000">+ transform(String, List&lt;String&gt;) : String</text>
</g>
<!-- TextTransformerService&#45;&gt;TextTransformer -->
<g id="edge16" class="edge">
<title>TextTransformerService-&gt;TextTransformer</title>
<path fill="none" stroke="#595959" stroke-dasharray="5,2" d="M19.698,-477.0216C19.698,-367.44 19.698,-54 19.698,-54 19.698,-54 224.0863,-54 224.0863,-54"/>
<polygon fill="#595959" stroke="#595959" points="234.0863,-54 224.0863,-58.5001 229.0863,-54 224.0863,-54.0001 224.0863,-54.0001 224.0863,-54.0001 229.0863,-54 224.0862,-49.5001 234.0863,-54 234.0863,-54"/>
</g>
<!-- TextTransformerService&#45;&gt;TextTransformerFactory -->
<g id="edge17" class="edge">
<title>TextTransformerService-&gt;TextTransformerFactory</title>
<path fill="none" stroke="#595959" stroke-dasharray="5,2" d="M193.6029,-476.8746C193.6029,-476.8746 193.6029,-441.9885 193.6029,-441.9885"/>
<polygon fill="#595959" stroke="#595959" points="193.6029,-431.9885 198.1029,-441.9885 193.6029,-436.9885 193.6029,-441.9885 193.6029,-441.9885 193.6029,-441.9885 193.6029,-436.9885 189.1029,-441.9886 193.6029,-431.9885 193.6029,-431.9885"/>
</g>
</g>
</svg>